<svg xmlns="http://www.w3.org/2000/svg" version="1.1" xmlns:xlink="http://www.w3.org/1999/xlink" xmlns:svgjs="http://svgjs.dev/svgjs" width="1440" height="560" preserveAspectRatio="none" viewBox="0 0 1440 560"><g mask="url(&quot;#SvgjsMask1001&quot;)" fill="none"><rect width="1440" height="560" x="0" y="0" fill="rgba(255, 255, 255, 1)"></rect><path d="M140 131.06C114.47 131.06 87.5 135.48 87.5 140C87.5 144.52 114.5 149.13 140 149.13C149.15 149.13 156.8 144.53 156.8 140C156.8 135.49 149.12 131.06 140 131.06" stroke="rgba(51, 121, 194, 0.58)" stroke-width="2"></path><path d="M353.18 0C390.79 14.1 384.48 52.5 420 52.5C465.31 52.5 465.43 18.53 514.84 0C535.43 -7.72 537.42 0 560 0C630 0 630 0 700 0C770 0 770 0 840 0C910 0 910 0 980 0C1039.23 0 1080.49 -31.45 1098.46 0C1120.49 38.55 1054.05 73.37 1060 140C1064.82 194.06 1093.72 241.38 1120 241.38C1144.43 241.38 1130.74 184.12 1161.41 140C1200.74 83.43 1210.07 89.34 1260 40C1280.9 19.34 1276.65 7.55 1303.08 0C1346.65 -12.45 1351.54 0 1400 0C1470 0 1505 -35 1540 0C1575 35 1540 70 1540 140C1540 208.16 1545.8 212.52 1540 276.32C1539.44 282.52 1527.27 278.03 1527.27 280C1527.27 281.99 1539.43 277.94 1540 284.24C1545.79 347.94 1540 352.12 1540 420C1540 490 1575 525 1540 560C1505 595 1470 560 1400 560C1341.66 560 1325.35 582.24 1283.33 560C1255.35 545.18 1272.09 485.88 1260 485.88C1247.82 485.88 1263.18 544.97 1234.8 560C1193.18 582.03 1177.4 560 1120 560C1050 560 1050 560 980 560C910 560 910 560 840 560C770 560 770 560 700 560C630 560 630 560 560 560C494.91 560 475.19 582.68 429.82 560C405.19 547.68 433.65 521.47 420 490C403.29 451.47 371.1 459.14 369.09 420C365.71 354.14 431.29 332.75 409.23 280C386.75 226.23 336.17 206.96 280 206.96C246.48 206.96 232.26 239.58 229.85 280C225.9 346.1 287.16 360.08 267.27 420C242.23 495.42 204.72 486.66 140 550.67C133.94 556.66 134.08 559.44 125.71 560C64.08 564.11 33.52 589.33 0 560C-29.33 534.33 -7.7 502.62 0 450C2.54 432.62 20.49 436.34 20.49 420C20.49 392.37 4.39 392.04 0 362.07C-5.86 322.04 0 321.03 0 280C0 210 0 210 0 140C0 70 -35 35 0 0C35 -35 70 0 140 0C210 0 210 0 280 0C316.59 0 320.79 -12.15 353.18 0" stroke="rgba(51, 121, 194, 0.58)" stroke-width="2"></path><path d="M700 86.55C662.51 86.55 618.33 115.76 618.33 140C618.33 162.62 661.49 180.27 700 180.27C726.82 180.27 749 161.86 749 140C749 115 727.85 86.55 700 86.55" stroke="rgba(51, 121, 194, 0.58)" stroke-width="2"></path><path d="M1400 134.04C1397.1 134.04 1394.62 136.32 1394.62 140C1394.62 150.97 1396.89 163.33 1400 163.33C1403.17 163.33 1407.18 150.59 1407.18 140C1407.18 135.95 1403.38 134.04 1400 134.04" stroke="rgba(51, 121, 194, 0.58)" stroke-width="2"></path><path d="M840 264.09C830.51 266.21 827.72 272.69 827.72 280C827.72 285.87 832.19 289.04 840 290.45C908.33 302.74 911.39 310.74 980 307.39C1018.45 305.51 1054.12 295.12 1054.12 280C1054.12 264.4 1019.21 248.86 980 245.95C912.15 240.91 906.65 249.19 840 264.09" stroke="rgba(51, 121, 194, 0.58)" stroke-width="2"></path><path d="M1260 256.67C1221.29 256.67 1182.22 258.53 1182.22 280C1182.22 309.08 1222.13 357.78 1260 357.78C1296.02 357.78 1330 309.65 1330 280C1330 259.09 1295.18 256.67 1260 256.67" stroke="rgba(51, 121, 194, 0.58)" stroke-width="2"></path><path d="M700 401.33C692.75 401.33 686.17 409.68 686.17 420C686.17 437.68 692.62 457.33 700 457.33C707.53 457.33 716 437.44 716 420C716 409.44 707.67 401.33 700 401.33" stroke="rgba(51, 121, 194, 0.58)" stroke-width="2"></path><path d="M140 56.6C72.95 73.27 47.54 85.54 0 66.32C-22.46 57.24 -22.5 10.66 0 0C47.5 -22.5 70 0 140 0C203.34 0 266.67 -13.51 266.67 0C266.67 14.79 206.29 40.11 140 56.6" stroke="rgba(51, 121, 194, 0.58)" stroke-width="2"></path><path d="M312.31 140C312.31 123.53 366.87 115 420 115C455.72 115 490 123.96 490 140C490 157.67 456.8 182.42 420 182.42C367.96 182.42 312.31 157.24 312.31 140" stroke="rgba(51, 121, 194, 0.58)" stroke-width="2"></path><path d="M700 22.91C678.82 4.36 647.5 5.98 647.5 0C647.5 -5.48 673.75 0 700 0C770 0 770 0 840 0C904.33 0 923.52 -22.56 968.65 0C993.52 12.44 975.01 34.9 980 70C984.97 104.9 988.57 106.15 988.57 140C988.57 146.83 986.68 149.35 980 151.35C912.4 171.62 902.38 188.65 840 184.55C816.05 182.98 825.39 160.86 807.33 140C755.39 80.04 758.73 74.36 700 22.91" stroke="rgba(51, 121, 194, 0.58)" stroke-width="2"></path><path d="M1210.7 140C1210.7 114.05 1233.43 90 1260 90C1291.73 90 1327.31 113.73 1327.31 140C1327.31 167.9 1291.39 198.33 1260 198.33C1233.08 198.33 1210.7 168.22 1210.7 140" stroke="rgba(51, 121, 194, 0.58)" stroke-width="2"></path><path d="M1400 59.57C1374.2 33.77 1356.92 18.78 1356.92 0C1356.92 -11.01 1378.46 0 1400 0C1470 0 1505 -35 1540 0C1575 35 1540 70 1540 140C1540 162.11 1548.99 184.21 1540 184.21C1527.45 184.21 1519.94 160.5 1496.92 140C1449.94 98.18 1444.2 103.77 1400 59.57" stroke="rgba(51, 121, 194, 0.58)" stroke-width="2"></path><path d="M43.08 280C60 237.1 97.88 225.22 140 225.22C165.14 225.22 164.86 249.66 177.61 280C205.77 347.05 232.27 357.73 221.82 420C213.47 469.73 180.25 504 140 504C100.93 504 84.78 469.95 63.17 420C36.32 357.95 21.58 334.49 43.08 280" stroke="rgba(51, 121, 194, 0.58)" stroke-width="2"></path><path d="M565 280C632.32 253.73 636.37 228.22 700 228.22C737.03 228.22 733.76 253.38 766.32 280C803.76 310.61 797.39 322.05 840 342.69C904.23 373.79 908.79 369.16 980 383.48C1048.79 397.31 1053.52 383.92 1120 399C1134.02 402.18 1137.13 406.08 1141 420C1159.53 486.58 1172.78 506.79 1164.8 560C1162.28 576.79 1142.4 560 1120 560C1081.38 560 1073.95 576.22 1042.76 560C1003.95 539.82 1020.56 494.89 980 487.2C919.18 475.67 897.17 539.52 840 521.57C790.17 505.92 804.74 469.41 766 420C734.74 380.13 731.63 343 700 343C670.11 343 645.64 377.11 642.96 420C638.86 485.61 708.72 522.42 686.45 560C667.24 592.42 623.22 560 560 560C525.62 560 507.05 582.74 491.23 560C458.36 512.74 446.82 483.65 462.61 420C481.2 345.08 510.5 350.54 560 282.86C561.7 280.54 562.32 281.05 565 280" stroke="rgba(51, 121, 194, 0.58)" stroke-width="2"></path><path d="M1491 420C1515.5 405.15 1523.86 390.3 1540 390.3C1548.36 390.3 1540 405.15 1540 420C1540 481.25 1542.89 481.78 1540 542.5C1539.56 551.78 1541.95 558.92 1533.33 560C1471.95 567.67 1466.66 560 1400 560C1374.07 560 1348.15 574.54 1348.15 560C1348.15 532.12 1365.5 508.97 1400 475.15C1436.92 438.97 1445.5 447.58 1491 420" stroke="rgba(51, 121, 194, 0.58)" stroke-width="2"></path><path d="M0 512.5C16.37 512.5 54.29 546.45 54.29 560C54.29 570.2 14.48 572.67 0 560C-12.67 548.92 -10.78 512.5 0 512.5" stroke="rgba(51, 121, 194, 0.58)" stroke-width="2"></path><path d="M840 63C817.63 63 789.6 19.39 789.6 0C789.6 -12.11 814.8 0 840 0C857.03 0 874.05 -10.15 874.05 0C874.05 21.35 859.86 63 840 63" stroke="rgba(51, 121, 194, 0.58)" stroke-width="2"></path><path d="M690 280C690 277.9 695.29 276.16 700 276.16C702.74 276.16 704.91 277.96 704.91 280C704.91 282.22 702.84 284.67 700 284.67C695.38 284.67 690 282.16 690 280" stroke="rgba(51, 121, 194, 0.58)" stroke-width="2"></path><path d="M105.85 420C105.85 371.81 122.43 316.3 140 316.3C157.68 316.3 176.36 372.17 176.36 420C176.36 442.68 157.89 457.33 140 457.33C122.63 457.33 105.85 442.33 105.85 420" stroke="rgba(51, 121, 194, 0.58)" stroke-width="2"></path><path d="M513.33 420C514.64 383.32 537.87 354.29 560 354.29C581.08 354.29 597.38 383.97 599.75 420C604.15 486.82 591.7 496.08 573.55 560C571.82 566.08 566.78 560 560 560C556.32 560 553.76 563.38 552.63 560C530.42 493.38 510.96 486.18 513.33 420" stroke="rgba(51, 121, 194, 0.58)" stroke-width="2"></path><path d="M816 420C816 406.66 825.13 394.93 840 394.93C870.73 394.93 907.2 405.81 907.2 420C907.2 434.81 869.52 452.94 840 452.94C823.92 452.94 816 435.67 816 420" stroke="rgba(51, 121, 194, 0.58)" stroke-width="2"></path></g><defs><mask id="SvgjsMask1001"><rect width="1440" height="560" fill="#ffffff"></rect></mask></defs></svg>